<?xml version="1.0" standalone="no"?>
<!DOCTYPE svg PUBLIC "-//W3C//DTD SVG 20010904//EN"
 "http://www.w3.org/TR/2001/REC-SVG-20010904/DTD/svg10.dtd">
<svg version="1.0" xmlns="http://www.w3.org/2000/svg"
 width="512.000000pt" height="512.000000pt" viewBox="0 0 512.000000 512.000000"
 preserveAspectRatio="xMidYMid meet">
<metadata>
Created by potrace 1.11, written by Peter Selinger 2001-2013
</metadata>
<g transform="translate(0.000000,512.000000) scale(0.100000,-0.100000)"
fill="#000000" stroke="none">
<path d="M3269 4086 c-2 -2 -38 -7 -79 -10 -95 -8 -299 -42 -365 -61 -27 -8
-61 -16 -75 -19 -118 -23 -362 -113 -543 -199 -76 -36 -140 -66 -142 -67 -16
-2 -242 -152 -297 -197 -131 -107 -255 -263 -326 -413 -33 -70 -88 -222 -96
-267 -3 -16 -7 -39 -10 -53 -19 -83 -24 -271 -11 -375 33 -267 155 -524 339
-713 39 -40 72 -77 74 -81 1 -5 -14 -13 -35 -19 -21 -6 -76 -22 -123 -37 -47
-14 -96 -27 -110 -29 -14 -2 -32 -6 -40 -9 -20 -8 -122 -26 -195 -35 -77 -9
-384 -9 -450 1 -269 37 -530 149 -715 306 l-54 46 33 -49 c129 -187 316 -367
509 -490 179 -114 469 -223 667 -251 28 -4 59 -9 70 -11 97 -19 426 -26 578
-11 96 9 276 38 364 60 332 82 608 195 933 383 78 45 171 115 243 183 70 66
197 220 197 239 0 6 3 12 8 14 21 9 117 226 137 308 47 198 56 294 42 468 -4
46 -9 87 -11 90 -2 4 -7 25 -10 47 -4 22 -18 76 -33 120 -15 44 -28 82 -28 85
-5 24 -68 140 -110 206 -61 94 -78 116 -162 203 -34 36 -61 67 -59 68 10 10
223 75 286 88 163 32 242 39 405 40 99 0 200 -3 225 -7 102 -17 118 -20 190
-39 41 -12 82 -22 90 -24 68 -16 315 -139 350 -175 3 -3 25 -18 49 -35 24 -16
45 -35 48 -42 3 -7 11 -13 19 -13 8 0 14 -4 14 -9 0 -5 7 -12 16 -15 21 -8
-57 101 -144 201 -234 268 -601 476 -967 549 -11 2 -31 6 -45 9 -26 5 -116 20
-185 30 -45 7 -460 16 -466 11z m-598 -760 c143 -18 290 -90 415 -202 44 -40
116 -138 148 -202 61 -122 80 -204 80 -352 0 -123 -4 -152 -40 -250 -80 -224
-249 -391 -467 -464 -94 -31 -107 -34 -206 -41 -68 -6 -82 -4 -75 7 6 10 5 11
-7 2 -17 -14 -149 2 -149 18 0 5 -4 7 -9 3 -12 -7 -116 32 -163 62 -21 12 -41
23 -46 23 -4 0 -22 14 -40 30 -18 17 -36 30 -40 30 -11 0 -98 95 -131 143 -40
59 -91 157 -91 177 0 9 -4 20 -9 25 -17 20 -33 113 -37 215 -3 93 0 125 21
218 42 184 203 386 385 481 58 31 191 73 211 68 10 -3 17 -1 14 3 -9 15 138
19 236 6z"/>
</g>
</svg>
